<?xml version="1.0" standalone="no"?><!DOCTYPE svg PUBLIC "-//W3C//DTD SVG 1.1//EN" "http://www.w3.org/Graphics/SVG/1.1/DTD/svg11.dtd"><svg t="1601887343490" class="icon" viewBox="0 0 1024 1024" version="1.1" xmlns="http://www.w3.org/2000/svg" p-id="3420" xmlns:xlink="http://www.w3.org/1999/xlink" width="200" height="200"><defs><style type="text/css"></style></defs><path d="M694.857143 768v73.142857q0 14.857143-10.857143 25.714286t-25.714286 10.857143H365.714286q-14.857143 0-25.714286-10.857143t-10.857143-25.714286v-73.142857q0-14.857143 10.857143-25.714286t25.714286-10.857143h36.571428V512h-36.571428q-14.857143 0-25.714286-10.857143t-10.857143-25.714286V402.285714q0-14.857143 10.857143-25.714285t25.714286-10.857143h219.428571q14.857143 0 25.714286 10.857143t10.857143 25.714285v329.142857h36.571428q14.857143 0 25.714286 10.857143t10.857143 25.714286zM621.714286 109.714286v109.714285q0 14.857143-10.857143 25.714286t-25.714286 10.857143H438.857143q-14.857143 0-25.714286-10.857143t-10.857143-25.714286V109.714286q0-14.857143 10.857143-25.714286t25.714286-10.857143h146.285714q14.857143 0 25.714286 10.857143t10.857143 25.714286z" p-id="3421"></path></svg>