<?xml version="1.0" standalone="no"?><!DOCTYPE svg PUBLIC "-//W3C//DTD SVG 1.1//EN" "http://www.w3.org/Graphics/SVG/1.1/DTD/svg11.dtd"><svg class="icon" width="200px" height="200.00px" viewBox="0 0 1024 1024" version="1.1" xmlns="http://www.w3.org/2000/svg"><path fill="#333333" d="M523.52 688.64a171.52 171.52 0 0 1 0-343.04 32 32 0 0 1 0 64 107.52 107.52 0 1 0 107.52 107.52 32 32 0 1 1 64 0 171.84 171.84 0 0 1-171.52 171.52zM523.52 853.12a466.88 466.88 0 0 1-448-326.4l-2.88-9.6 2.88-9.6a468.8 468.8 0 0 1 893.12 0l3.2 9.6-3.2 9.6a466.88 466.88 0 0 1-445.12 326.4zM141.12 517.12a404.48 404.48 0 0 0 764.48 0 404.48 404.48 0 0 0-764.48 0z" /></svg>